<svg width="16" height="22" viewBox="0 0 16 22" fill="none" xmlns="http://www.w3.org/2000/svg">
<path d="M7.13145 18.2031H8.50288V16.9351C9.15594 16.7829 9.71757 16.4532 10.1878 15.946C10.658 15.4388 10.8931 14.6865 10.8931 13.689C10.8931 12.9789 10.7364 12.328 10.4229 11.7363C10.1094 11.1446 9.48247 10.6289 8.54206 10.1893C7.75839 9.85121 7.21634 9.55535 6.91593 9.30175C6.61553 9.04815 6.46532 8.70157 6.46532 8.26199C6.46532 7.82242 6.58614 7.47584 6.82777 7.22224C7.0694 6.96864 7.41879 6.84184 7.87594 6.84184C8.2939 6.84184 8.62043 6.97287 8.85553 7.23492C9.09063 7.49697 9.26043 7.82242 9.36492 8.21127L10.6188 7.55192C10.4751 6.96019 10.2106 6.44453 9.82533 6.00496C9.44002 5.56539 9.01227 5.32025 8.54206 5.26953V4.00153H7.17063V5.26953C6.51757 5.4555 6.00818 5.82744 5.64246 6.38536C5.27675 6.94328 5.09389 7.56882 5.09389 8.26199C5.09389 9.0566 5.27348 9.69905 5.63267 10.1893C5.99185 10.6796 6.55675 11.1023 7.32736 11.4573C8.15022 11.8462 8.72165 12.1928 9.04165 12.4971C9.36165 12.8014 9.52166 13.1987 9.52166 13.689C9.52166 14.2469 9.36819 14.6569 9.06125 14.919C8.75431 15.181 8.38533 15.312 7.9543 15.312C7.52328 15.312 7.14124 15.1388 6.80818 14.7922C6.47512 14.4456 6.23022 13.9257 6.07348 13.2325L4.78042 13.8919C4.96328 14.7034 5.24736 15.3585 5.63267 15.8573C6.01797 16.356 6.51757 16.6984 7.13145 16.8844V18.2031ZM7.83675 21.2463C6.75267 21.2463 5.73389 20.98 4.78042 20.4474C3.82695 19.9149 2.99756 19.1921 2.29225 18.2792C1.58694 17.3662 1.02857 16.2926 0.617144 15.0584C0.205715 13.8243 0 12.5055 0 11.1023C0 9.69905 0.205715 8.38034 0.617144 7.14616C1.02857 5.91198 1.58694 4.83841 2.29225 3.92545C2.99756 3.01249 3.82695 2.28974 4.78042 1.75718C5.73389 1.22462 6.75267 0.958344 7.83675 0.958344C8.92084 0.958344 9.93962 1.22462 10.8931 1.75718C11.8466 2.28974 12.6759 3.01249 13.3813 3.92545C14.0866 4.83841 14.6449 5.91198 15.0564 7.14616C15.4678 8.38034 15.6735 9.69905 15.6735 11.1023C15.6735 12.5055 15.4678 13.8243 15.0564 15.0584C14.6449 16.2926 14.0866 17.3662 13.3813 18.2792C12.6759 19.1921 11.8466 19.9149 10.8931 20.4474C9.93962 20.98 8.92084 21.2463 7.83675 21.2463Z" fill="white"/>
</svg>
